<svg width="760" height="377" viewBox="0 0 760 377" fill="none" xmlns="http://www.w3.org/2000/svg">
<path d="M688.821 149.59C688.687 149.374 688.567 149.151 688.461 148.92C686.711 149.13 684.971 149.36 683.221 149.59H688.821Z" fill="url(#paint0_linear_3_834)"/>
<path d="M119.36 262.55C124.753 249.617 127.53 235.743 127.53 221.73V196.3L126.23 198.81C108.024 199.443 81.8569 199.757 47.7302 199.75C63.4302 220.27 82.9002 241.203 106.14 262.55L79.1402 262.86C70.5602 262.86 47.5336 239.193 10.0602 191.86C24.7269 187.467 34.0436 184.223 38.0103 182.13C48.6769 176.483 54.0103 169.15 54.0103 160.13C54.0103 146.937 47.9402 138.143 35.8002 133.75C28.8936 131.243 17.3803 130.197 1.26025 130.61L0.950195 110.83H183.73V130.61C170.124 131.03 159.554 131.137 152.02 130.93V221.67C152.087 235.807 154.969 249.789 160.5 262.8L119.36 262.55ZM127.53 130.67H72.2302C77.8902 137.163 80.7169 146.163 80.7102 157.67C80.7743 162.387 79.8902 167.068 78.1106 171.436C76.331 175.805 73.692 179.771 70.3502 183.1C96.5102 182.26 115.56 180.167 127.5 176.82L127.53 130.67Z" fill="#CFB146"/>
<path d="M357.06 202.89C357.06 229.27 340.836 249.367 308.39 263.18L293.32 238.06C303.573 238.9 312.103 236.02 318.91 229.42C325.716 222.82 329.326 214.29 329.74 203.83C330.004 199.958 329.487 196.073 328.22 192.405C326.952 188.737 324.959 185.362 322.36 182.48C319.875 179.552 316.767 177.215 313.264 175.641C309.76 174.066 305.95 173.294 302.11 173.38C292.27 173.38 284.523 176.003 278.87 181.25V221.9C278.936 236.086 281.819 250.117 287.35 263.18H245.9C248.66 256.925 250.765 250.4 252.18 243.71C245.305 244.592 238.389 245.116 231.46 245.28C215.34 245.28 202.203 240.413 192.05 230.68C181.896 220.947 176.82 208.02 176.82 191.9C176.82 174.74 181.53 162.493 190.95 155.16C199.136 148.68 211.896 145.437 229.23 145.43C232.163 145.43 237.083 145.533 243.99 145.74L254.35 165.53V130.36H172.74L172.43 110.89H368.05V130.36C352.55 131.2 336.43 131.617 319.69 131.61H278.87V156.73C287.947 151.846 298.082 149.258 308.39 149.19C321.776 149.19 333.393 154.857 343.24 166.19C352.453 177.057 357.06 189.29 357.06 202.89ZM254.38 217.06V171.78C243.493 168.053 236.376 166.19 233.03 166.19C211.03 166.19 200.03 173.893 200.03 189.3C200.03 198.667 202.906 206.63 208.66 213.19C214.413 219.75 221.896 223.03 231.11 223.03C243.483 223.003 251.24 221.013 254.38 217.06Z" fill="#CFB146"/>
<path d="M515.68 130.91H411.29V156.13C411.532 156.146 411.769 156.21 411.986 156.32C412.202 156.43 412.394 156.583 412.55 156.77C412.819 157.11 413.21 157.333 413.64 157.39C413.165 157.443 412.683 157.392 412.23 157.24C412.23 156.72 420.017 155.053 435.59 152.24C441.225 151.207 446.941 150.681 452.67 150.67C476.176 150.67 491.277 157.253 497.97 170.42C502.457 179.2 504.703 196.913 504.71 223.56V283.9C502.51 283.06 494.203 279.663 479.79 273.71C479.79 270.377 479.123 268.237 477.79 267.29C472.25 270.53 467.703 272.987 464.15 274.66C452.87 279.993 439.756 282.66 424.81 282.66C404.223 282.66 388.34 276.18 377.16 263.22C371.93 257.475 369.025 249.989 369.01 242.22C369.01 233.553 373.293 224.933 381.86 216.36C398.48 199.74 419.12 191.433 443.78 191.44C458.72 191.44 470.72 194.887 479.78 201.78V187.33C475.18 181.483 470.713 177.567 466.38 175.58C462.047 173.593 456.117 172.703 448.59 172.91C431.763 173.23 416.35 176.313 402.35 182.16C396.083 184.767 389.97 187.1 384.01 189.16V177.58C385.37 176.43 387.35 174.7 390.01 172.4C390.42 171.87 390.68 171.56 390.79 171.4V130.91H358.63V112.1H515.68V130.91ZM479.79 230.28C479.79 225.68 474.303 221.553 463.33 217.9C454.243 214.867 446.667 213.35 440.6 213.35C418.553 213.35 400.887 221.29 387.6 237.17C382.267 243.55 379.6 248.777 379.6 252.85C381.793 260.477 390.413 264.29 405.46 264.29C424.232 264.473 442.685 259.424 458.75 249.71C472.77 241.25 479.783 234.773 479.79 230.28Z" fill="#D0B246"/>
<path d="M562.54 93.34V286.39C561.139 285.927 559.778 285.352 558.47 284.67L550.32 280.43C540.987 275.623 536.073 273.22 535.58 273.22V93.65C535.58 82.6767 533.44 71.01 529.16 58.65C523.122 41.2988 513.692 25.3221 501.42 11.65L491.54 0.52002H524.93C542.263 17.8534 553.653 39.13 559.1 64.35C561.259 73.8662 562.412 83.5829 562.54 93.34ZM530.73 130.91H512.86V112.1H530.73V130.91ZM584.33 130.91H567.72V112.1H584.33V130.91Z" fill="#D0B246"/>
<path d="M759.56 130.91H579.78V112.1H759.56V130.91ZM747.02 217.74C747.02 229.233 743.574 240.1 736.68 250.34C730.191 259.957 721.549 267.928 711.44 273.62C700.987 279.62 691.32 282.62 682.44 282.62C673.774 282.62 662.957 277.76 649.99 268.04C643.724 263.373 634.53 255.277 622.41 243.75V376.66L597.33 363.5V156.19H621.78V194.43L631.34 184.43C653.394 161.343 671.264 149.797 684.95 149.79C699.777 149.79 713.933 157.457 727.42 172.79C740.487 187.723 747.02 202.707 747.02 217.74ZM731.51 199.56C731.51 191.62 727.38 183.99 719.12 176.67C715.047 173.023 709.877 171.197 703.61 171.19C691.277 171.19 675.967 178.66 657.68 193.6C638.874 208.933 629.47 222.57 629.47 234.51C629.47 241.51 636 247.673 649.06 253C654.464 255.315 660.272 256.542 666.15 256.61C684.33 256.61 700.107 249.61 713.48 235.61C725.5 223.07 731.51 211.053 731.51 199.56Z" fill="#D0B246"/>
<path d="M103.16 66.47C112.886 66.47 120.77 58.5857 120.77 48.86C120.77 39.1343 112.886 31.25 103.16 31.25C93.4341 31.25 85.5498 39.1343 85.5498 48.86C85.5498 58.5857 93.4341 66.47 103.16 66.47Z" fill="#CFB146"/>
<path d="M585.42 101V96.3977L602.705 77.4773C604.733 75.2614 606.403 73.3352 607.716 71.6989C609.028 70.0455 610 68.4943 610.631 67.0455C611.278 65.5795 611.602 64.0455 611.602 62.4432C611.602 60.6023 611.159 59.0085 610.273 57.6619C609.403 56.3153 608.21 55.2756 606.693 54.5426C605.176 53.8097 603.472 53.4432 601.58 53.4432C599.568 53.4432 597.812 53.8608 596.312 54.696C594.83 55.5142 593.679 56.6648 592.861 58.1477C592.06 59.6307 591.659 61.3693 591.659 63.3636H585.625C585.625 60.2955 586.332 57.6023 587.747 55.2841C589.162 52.9659 591.088 51.1591 593.526 49.8636C595.98 48.5682 598.733 47.9205 601.784 47.9205C604.852 47.9205 607.571 48.5682 609.94 49.8636C612.31 51.1591 614.168 52.9062 615.514 55.1051C616.861 57.304 617.534 59.75 617.534 62.4432C617.534 64.3693 617.185 66.2528 616.486 68.0938C615.804 69.9176 614.611 71.9545 612.906 74.2045C611.219 76.4375 608.875 79.1648 605.875 82.3864L594.114 94.9659V95.375H618.455V101H585.42ZM646.094 101.716C642.241 101.716 638.96 100.668 636.25 98.571C633.54 96.4574 631.469 93.3977 630.037 89.392C628.605 85.3693 627.889 80.5114 627.889 74.8182C627.889 69.1591 628.605 64.3267 630.037 60.321C631.486 56.2983 633.565 53.2301 636.276 51.1165C639.003 48.9858 642.276 47.9205 646.094 47.9205C649.912 47.9205 653.176 48.9858 655.886 51.1165C658.614 53.2301 660.693 56.2983 662.125 60.321C663.574 64.3267 664.298 69.1591 664.298 74.8182C664.298 80.5114 663.582 85.3693 662.151 89.392C660.719 93.3977 658.648 96.4574 655.938 98.571C653.227 100.668 649.946 101.716 646.094 101.716ZM646.094 96.0909C649.912 96.0909 652.878 94.25 654.991 90.5682C657.105 86.8864 658.162 81.6364 658.162 74.8182C658.162 70.2841 657.676 66.4233 656.705 63.2358C655.75 60.0483 654.369 57.6193 652.562 55.9489C650.773 54.2784 648.616 53.4432 646.094 53.4432C642.31 53.4432 639.352 55.3097 637.222 59.0426C635.091 62.7585 634.026 68.017 634.026 74.8182C634.026 79.3523 634.503 83.2045 635.457 86.375C636.412 89.5455 637.784 91.9574 639.574 93.6108C641.381 95.2642 643.554 96.0909 646.094 96.0909ZM674.014 101V96.3977L691.298 77.4773C693.327 75.2614 694.997 73.3352 696.31 71.6989C697.622 70.0455 698.594 68.4943 699.224 67.0455C699.872 65.5795 700.196 64.0455 700.196 62.4432C700.196 60.6023 699.753 59.0085 698.866 57.6619C697.997 56.3153 696.804 55.2756 695.287 54.5426C693.77 53.8097 692.065 53.4432 690.173 53.4432C688.162 53.4432 686.406 53.8608 684.906 54.696C683.423 55.5142 682.273 56.6648 681.455 58.1477C680.653 59.6307 680.253 61.3693 680.253 63.3636H674.219C674.219 60.2955 674.926 57.6023 676.341 55.2841C677.756 52.9659 679.682 51.1591 682.119 49.8636C684.574 48.5682 687.327 47.9205 690.378 47.9205C693.446 47.9205 696.165 48.5682 698.534 49.8636C700.903 51.1591 702.761 52.9062 704.108 55.1051C705.455 57.304 706.128 59.75 706.128 62.4432C706.128 64.3693 705.778 66.2528 705.08 68.0938C704.398 69.9176 703.205 71.9545 701.5 74.2045C699.812 76.4375 697.469 79.1648 694.469 82.3864L682.707 94.9659V95.375H707.048V101H674.014ZM735.301 101.716C731.926 101.716 728.918 101.136 726.276 99.9773C723.651 98.8182 721.563 97.2074 720.011 95.1449C718.477 93.0653 717.642 90.6534 717.506 87.9091H723.949C724.085 89.5966 724.665 91.054 725.688 92.2812C726.71 93.4915 728.048 94.429 729.702 95.0938C731.355 95.7585 733.188 96.0909 735.199 96.0909C737.449 96.0909 739.443 95.6989 741.182 94.9148C742.92 94.1307 744.284 93.0398 745.273 91.642C746.261 90.2443 746.756 88.625 746.756 86.7841C746.756 84.858 746.278 83.1619 745.324 81.696C744.369 80.2131 742.972 79.054 741.131 78.2188C739.29 77.3835 737.04 76.9659 734.381 76.9659H730.188V71.3409H734.381C736.46 71.3409 738.284 70.9659 739.852 70.2159C741.438 69.4659 742.673 68.4091 743.56 67.0455C744.463 65.6818 744.915 64.0795 744.915 62.2386C744.915 60.4659 744.523 58.9233 743.739 57.6108C742.955 56.2983 741.847 55.2756 740.415 54.5426C739 53.8097 737.33 53.4432 735.403 53.4432C733.597 53.4432 731.892 53.7756 730.29 54.4403C728.705 55.0881 727.409 56.0341 726.403 57.2784C725.398 58.5057 724.852 59.9886 724.767 61.7273H718.631C718.733 58.983 719.56 56.5795 721.111 54.517C722.662 52.4375 724.69 50.8182 727.196 49.6591C729.719 48.5 732.489 47.9205 735.506 47.9205C738.744 47.9205 741.523 48.5767 743.841 49.8892C746.159 51.1847 747.94 52.8977 749.185 55.0284C750.429 57.1591 751.051 59.4602 751.051 61.9318C751.051 64.8807 750.276 67.3949 748.724 69.4744C747.19 71.554 745.102 72.9943 742.46 73.7955V74.2045C745.767 74.75 748.349 76.1562 750.207 78.4233C752.065 80.6733 752.994 83.4602 752.994 86.7841C752.994 89.6307 752.219 92.1875 750.668 94.4545C749.134 96.7045 747.037 98.4773 744.378 99.7727C741.719 101.068 738.693 101.716 735.301 101.716Z" fill="#CFB146"/>
<defs>
<linearGradient id="paint0_linear_3_834" x1="-371.665" y1="-891.138" x2="1042.4" y2="500.358" gradientUnits="userSpaceOnUse">
<stop stop-color="#C8992E"/>
<stop offset="0.22" stop-color="#B57E10"/>
<stop offset="0.43" stop-color="#F9DF7B"/>
<stop offset="0.59" stop-color="#FFF3A6"/>
<stop offset="0.73" stop-color="#F9DF7B"/>
<stop offset="0.86" stop-color="#B57E10"/>
<stop offset="0.88" stop-color="#B98416"/>
<stop offset="1" stop-color="#CDA035"/>
</linearGradient>
</defs>
</svg>
